# File created by Blade
# Date/Time:  Thu Jan 15 19:03:44 2015
#---------------------------------------------------------
:version 1.10
:name HOM
:units
  mass 1.0
  length 1.000000
  angle deg
:documentation
     Acclaim Skeleton File
:root
   axis xyz
   order TX TY TZ RX RY RZ
   position 0.000000 0.000000 0.000000
   orientation 0 0 0
:bonedata
   begin
      id 1
      name Spine_dum
      direction 0.000000 1.000000 0.000000
      length 4.354460
      axis 0.0 0.0 0.0 xyz
   end
   begin
      id 2
      name LeftUpLeg_dum
      direction 1.000000 0.000000 0.000000
      length 4.291077
      axis 0.0 0.0 0.0 xyz
   end
   begin
      id 3
      name RightUpLeg_dum
      direction -1.000000 0.000000 0.000000
      length 4.291077
      axis 0.0 0.0 0.0 xyz
   end
   begin
      id 4
      name Spine
      direction 0.000000 1.000000 0.000000
      length 0.000000
      axis 0.0 0.0 0.0 xyz
      dof rx ry rz
   end
   begin
      id 5
      name Spine_dum1
      direction 0.000000 1.000000 0.000000
      length 16.581769
      axis 0.0 0.0 0.0 xyz
   end
   begin
      id 6
      name Spine_dum2
      direction 0.000000 1.000000 0.000000
      length 12.903700
      axis 0.0 0.0 0.0 xyz
   end
   begin
      id 7
      name Spine_dum3
      direction 0.000000 1.000000 0.000000
      length 12.903700
      axis 0.0 0.0 0.0 xyz
   end
   begin
      id 8
      name Head
      direction 0.000000 1.000000 0.000000
      length 4.527550
      axis 0.0 0.0 0.0 xyz
      dof rx ry rz
   end
   begin
      id 9
      name LeftShoulder
      direction 1.000000 0.000000 0.000000
      length 6.942033
      axis 0.0 0.0 -90.0 xyz
      dof rx ry rz
   end
   begin
      id 10
      name LeftArm
      direction 1.000000 0.000000 0.000000
      length 11.010391
      axis 0.0 0.0 -90.0 xyz
      dof rx ry rz
   end
   begin
      id 11
      name LeftForeArm
      direction 1.000000 0.000000 0.000000
      length 8.054994
      axis 0.0 0.0 -90.0 xyz
      dof rz ry rx
   end
   begin
      id 12
      name LeftHand
      direction 0.000000 0.000000 0.000000
      length 0.000000
      axis 0.0 0.0 -90.0 xyz
      dof rx ry rz
   end
   begin
      id 13
      name LeftHand_dum1
      direction 0.000000 0.000000 0.000000
      length 0.000000
      axis 0.0 0.0 -90.0 xyz
   end
   begin
      id 14
      name LeftHand_dum2
      direction 1.000000 0.000000 0.000000
      length 3.937000
      axis 0.0 0.0 -90.0 xyz
   end
   begin
      id 15
      name LeftHandThumb1
      direction 0.000000 0.000000 1.000000
      length 3.937000
      axis 0.0 0.0 -90.0 xyz
      dof rx ry rz
   end
   begin
      id 16
      name RightShoulder
      direction -1.000000 0.000000 0.000000
      length 6.942033
      axis 0.0 0.0 90.0 xyz
      dof rx ry rz
   end
   begin
      id 17
      name RightArm
      direction -1.000000 0.000000 0.000000
      length 11.010391
      axis 0.0 0.0 90.0 xyz
      dof rx ry rz
   end
   begin
      id 18
      name RightForeArm
      direction -1.000000 0.000000 0.000000
      length 8.054994
      axis 0.0 0.0 90.0 xyz
      dof rz ry rx
   end
   begin
      id 19
      name RightHand
      direction 0.000000 0.000000 0.000000
      length 0.000000
      axis 0.0 0.0 90.0 xyz
      dof rx ry rz
   end
   begin
      id 20
      name RightHand_dum1
      direction 0.000000 0.000000 0.000000
      length 0.000000
      axis 0.0 0.0 90.0 xyz
   end
   begin
      id 21
      name RightHand_dum2
      direction -1.000000 0.000000 0.000000
      length 3.937000
      axis 0.0 0.0 90.0 xyz
   end
   begin
      id 22
      name RightHandThumb1
      direction 0.000000 0.000000 1.000000
      length 3.937000
      axis 0.0 0.0 90.0 xyz
      dof rx ry rz
   end
   begin
      id 23
      name LeftUpLeg
      direction 0.000000 -1.000000 0.000000
      length 17.039958
      axis 0.0 0.0 0.0 xyz
      dof rx ry rz
   end
   begin
      id 24
      name LeftLeg
      direction 0.000000 -1.000000 0.000000
      length 16.939743
      axis 0.0 0.0 0.0 xyz
      dof rx ry rz
   end
   begin
      id 25
      name LeftFoot
      direction 0.000000 -0.258819 0.965926
      length 5.235044
      axis 15.0 0.0 0.0 xyz
      dof rx ry rz
   end
   begin
      id 26
      name LeftToeBase
      direction 0.000000 0.000000 1.000000
      length 2.952750
      axis 0.0 0.0 0.0 xyz
      dof rx ry rz
   end
   begin
      id 27
      name RightUpLeg
      direction 0.000000 -1.000000 0.000000
      length 17.039958
      axis 0.0 0.0 0.0 xyz
      dof rx ry rz
   end
   begin
      id 28
      name RightLeg
      direction 0.000000 -1.000000 0.000000
      length 16.939743
      axis 0.0 0.0 0.0 xyz
      dof rx ry rz
   end
   begin
      id 29
      name RightFoot
      direction 0.000000 -0.258819 0.965926
      length 5.235044
      axis 15.0 0.0 0.0 xyz
      dof rx ry rz
   end
   begin
      id 30
      name RightToeBase
      direction 0.000000 0.000000 1.000000
      length 2.952750
      axis 0.0 0.0 0.0 xyz
      dof rx ry rz
   end
:hierarchy
   begin
      root Spine_dum LeftUpLeg_dum RightUpLeg_dum
      Spine_dum Spine
      LeftUpLeg_dum LeftUpLeg
      RightUpLeg_dum RightUpLeg
      Spine Spine_dum1 Spine_dum2 Spine_dum3
      Spine_dum1 Head
      Spine_dum2 LeftShoulder
      Spine_dum3 RightShoulder
      LeftShoulder LeftArm
      LeftArm LeftForeArm
      LeftForeArm LeftHand
      LeftHand LeftHand_dum1 LeftHand_dum2
      LeftHand_dum1 LeftHandThumb1
      RightShoulder RightArm
      RightArm RightForeArm
      RightForeArm RightHand
      RightHand RightHand_dum1 RightHand_dum2
      RightHand_dum1 RightHandThumb1
      LeftUpLeg LeftLeg
      LeftLeg LeftFoot
      LeftFoot LeftToeBase
      RightUpLeg RightLeg
      RightLeg RightFoot
      RightFoot RightToeBase
   end

# File created by Blade
# Date/Time:  Thu Jan 15 19:03:33 2015
# Frame Rate: 120.000 fps
#------------------------------------------------------
:FULLY-SPECIFIED
:DEGREES
2911
root 8.786135 33.550575 -7.947135 -184.984715 -8.120232 -173.409527
Spine 5.427798 13.035433 6.223594
Head 6.007808 -5.021366 11.263467
LeftShoulder -6.979339 13.380355 -1.581480
LeftArm 11.667899 17.068054 -79.186036
LeftForeArm -0.000000 15.181505 107.665166
LeftHand 7.513738 -0.000000 -9.025388
LeftHandThumb1 -26.253704 33.147579 0.000000
RightShoulder -18.307733 -1.453497 4.583677
RightArm 13.058949 1.881531 67.241489
RightForeArm -0.000000 -23.705019 31.244243
RightHand 4.044293 -0.000000 0.246223
RightHandThumb1 -24.326973 -32.862282 -0.000000
LeftUpLeg -12.650097 10.673752 3.857673
LeftLeg 49.530517 -0.000000 -0.000000
LeftFoot -39.441821 22.285486 -18.210794
LeftToeBase 14.029720 -0.000000 -0.000000
RightUpLeg -2.752530 -1.649775 10.557906
RightLeg 31.531887 -0.000000 -0.000000
RightFoot -38.287311 -27.827174 13.284598
RightToeBase 17.489153 -0.000000 -0.000000
2912
root 8.831093 33.349717 -7.889115 -184.700352 -7.604088 -172.842567
Spine 5.248060 12.889760 6.931956
Head 5.728739 -4.285941 10.896888
LeftShoulder -7.185530 13.463253 -1.796574
LeftArm 11.675265 16.248041 -78.827590
LeftForeArm -0.000000 16.738893 105.850839
LeftHand 7.839061 -0.000000 -9.565242
LeftHandThumb1 -26.253704 33.147579 0.000000
RightShoulder -17.880487 -0.988063 4.330160
RightArm 14.122945 2.597763 67.369843
RightForeArm -0.000000 -24.897617 31.570953
RightHand 3.878133 -0.000000 0.654495
RightHandThumb1 -24.326973 -32.862282 -0.000000
LeftUpLeg -13.964820 11.095705 4.478140
LeftLeg 51.671629 -0.000000 -0.000000
LeftFoot -40.222502 21.755257 -18.459469
LeftToeBase 13.713608 -0.000000 -0.000000
RightUpLeg -3.843359 -1.722388 11.100444
RightLeg 33.027917 -0.000000 -0.000000
RightFoot -39.111452 -27.444135 12.719964
RightToeBase 17.809205 -0.000000 -0.000000
2913
root 8.871870 33.210985 -7.846746 -184.491601 -7.223113 -172.260727
Spine 5.079730 12.651068 7.628839
Head 5.495298 -3.756478 10.608773
LeftShoulder -7.231953 13.677050 -1.966256
LeftArm 11.684765 15.324194 -78.250028
LeftForeArm -0.000000 18.186784 104.095268
LeftHand 8.261799 0.000000 -9.923091
LeftHandThumb1 -26.253704 33.147579 0.000000
RightShoulder -17.402024 -0.828822 4.218342
RightArm 15.125334 3.083921 67.306245
RightForeArm 0.000000 -25.897956 32.276260
RightHand 3.726701 0.000000 1.230009
RightHandThumb1 -24.326973 -32.862282 -0.000000
LeftUpLeg -15.155631 11.488666 5.120676
LeftLeg 53.550592 -0.000000 -0.000000
LeftFoot -40.471706 21.269473 -18.640202
LeftToeBase 13.235215 -0.000000 -0.000000
RightUpLeg -5.004027 -1.945628 11.650623
RightLeg 34.635492 -0.000000 -0.000000
RightFoot -39.446937 -26.808556 12.790412
RightToeBase 17.457062 -0.000000 -0.000000
2914
root 8.891799 33.127529 -7.824015 -184.431586 -6.939265 -171.804873
Spine 5.029623 12.273758 8.216485
Head 5.287288 -3.226389 10.371105
LeftShoulder -7.251566 13.778804 -2.044571
LeftArm 11.518104 14.348938 -77.570480
LeftForeArm -0.000000 19.515485 102.441643
LeftHand 8.571848 -0.000000 -10.354069
LeftHandThumb1 -26.253704 33.147579 0.000000
RightShoulder -16.897838 -0.897581 4.200499
RightArm 16.118897 3.125165 66.967264
RightForeArm -0.000000 -26.430227 33.190382
RightHand 3.630080 -0.000000 1.551379
RightHandThumb1 -24.326973 -32.862282 -0.000000
LeftUpLeg -16.083765 11.740888 5.616021
LeftLeg 55.126793 -0.000000 -0.000000
LeftFoot -40.238012 21.082516 -18.663474
LeftToeBase 12.649843 -0.000000 -0.000000
RightUpLeg -5.910561 -2.269855 12.038071
RightLeg 36.068992 -0.000000 -0.000000
RightFoot -39.520977 -25.864390 13.353282
RightToeBase 16.596778 -0.000000 -0.000000
2915
root 8.873999 33.090837 -7.833402 -184.639780 -6.732749 -171.785187
Spine 5.274243 11.882870 8.382399
Head 5.072943 -2.813013 10.254255
LeftShoulder -7.225811 13.850053 -1.942202
LeftArm 11.308640 13.428728 -76.870535
LeftForeArm -0.000000 20.768244 100.731929
LeftHand 8.911728 -0.000000 -10.466663
LeftHandThumb1 -26.253704 33.147579 0.000000
RightShoulder -16.524323 -1.004889 4.151263
RightArm 16.985855 3.083327 66.648449
RightForeArm 0.000000 -27.250713 34.253043
RightHand 3.607658 -0.000000 2.107366
RightHandThumb1 -24.326973 -32.862282 -0.000000
LeftUpLeg -16.438148 11.884017 5.649987
LeftLeg 56.196911 -0.000000 -0.000000
LeftFoot -39.521759 21.370191 -18.267451
LeftToeBase 12.021487 -0.000000 -0.000000
RightUpLeg -6.237412 -2.973528 11.858176
RightLeg 37.129762 -0.000000 -0.000000
RightFoot -39.484591 -24.767226 13.660478
RightToeBase 15.975863 -0.000000 -0.000000
